<!--?xml version="1.0" standalone="no"?-->
              <svg id="sw-js-blob-svg" viewBox="0 0 100 100" xmlns="http://www.w3.org/2000/svg" version="1.1">
                    <defs> 
                        <linearGradient id="sw-gradient" x1="0" x2="1" y1="1" y2="0">
                            <stop id="stop1" stop-color="rgba(248, 117, 55, 1)" offset="0%"></stop>
                            <stop id="stop2" stop-color="rgba(251, 168, 31, 1)" offset="100%"></stop>
                        </linearGradient>
                    </defs>
                <path fill="url(#sw-gradient)" d="M24,-27.9C31.2,-22.6,37.2,-15.1,39.6,-6.2C42.1,2.6,41,12.8,35.5,18.7C29.9,24.5,20,26,11.7,26.5C3.5,27,-3,26.5,-9.7,24.8C-16.4,23.2,-23.3,20.3,-28.2,14.8C-33.2,9.3,-36.2,1.2,-34.2,-5.3C-32.2,-11.8,-25.2,-16.8,-18.7,-22.2C-12.1,-27.6,-6.1,-33.6,1.2,-35C8.4,-36.4,16.8,-33.3,24,-27.9Z" width="100%" height="100%" transform="translate(50 50)" stroke-width="0" style="transition: all 0.3s ease 0s;" stroke="url(#sw-gradient)"></path>
              </svg>