<svg width="362" height="106" viewBox="0 0 362 106" fill="none" xmlns="http://www.w3.org/2000/svg">
<path d="M82.6797 87.7422C81.4141 89.4766 79.9141 91.3516 78.1797 93.3672C76.4453 95.3359 74.5469 97.1875 72.4844 98.9219C70.4219 100.609 68.2188 102.016 65.875 103.141C63.5781 104.312 61.2109 104.898 58.7734 104.898C57.1328 104.898 55.6094 104.641 54.2031 104.125C52.7969 103.656 51.4844 103 50.2656 102.156C49.0938 101.312 47.9688 100.352 46.8906 99.2734C45.8594 98.1484 44.875 97 43.9375 95.8281C40.8438 91.9844 37.8203 88.1172 34.8672 84.2266C31.9609 80.3359 29.125 76.375 26.3594 72.3438L27.1328 69.4609C30.1797 68.9453 33.25 68.1719 36.3438 67.1406C39.4844 66.0625 42.4844 64.75 45.3438 63.2031C48.2031 61.6094 50.875 59.7812 53.3594 57.7188C55.8438 55.6094 58 53.2891 59.8281 50.7578C61.6562 48.1797 63.0859 45.3906 64.1172 42.3906C65.1953 39.3438 65.7344 36.0859 65.7344 32.6172C65.7344 29.2891 65.1953 26.2188 64.1172 23.4062C63.0391 20.5938 61.5156 18.1562 59.5469 16.0938C57.625 14.0313 55.3047 12.4375 52.5859 11.3125C49.8672 10.1406 46.8438 9.55469 43.5156 9.55469C39.2969 9.55469 35.3359 10.0234 31.6328 10.9609C27.9766 11.8984 24.4844 13.1641 21.1562 14.7578C17.875 16.3047 14.7109 18.0859 11.6641 20.1016C8.61719 22.1172 5.61719 24.2031 2.66406 26.3594L0.484375 23.9688C3.29688 21.25 6.32031 18.5313 9.55469 15.8125C12.8359 13.0469 16.5156 10.5625 20.5938 8.35938C24.6719 6.15625 29.2188 4.375 34.2344 3.01562C39.2969 1.60938 44.9922 0.90625 51.3203 0.90625C55.5859 0.90625 59.5 1.65625 63.0625 3.15625C66.6719 4.65625 69.7656 6.74219 72.3438 9.41406C74.9219 12.0859 76.9375 15.25 78.3906 18.9062C79.8438 22.5625 80.5703 26.5469 80.5703 30.8594C80.5703 37.5625 78.8828 43.3984 75.5078 48.3672C72.1328 53.2891 67.5625 57.2969 61.7969 60.3906C61.0938 60.7656 60.2031 61.2578 59.125 61.8672C58.0938 62.4766 56.9453 63.1328 55.6797 63.8359C54.4609 64.5391 53.1953 65.2422 51.8828 65.9453C50.5703 66.6484 49.3047 67.3047 48.0859 67.9141C46.8672 68.4766 45.7422 68.9688 44.7109 69.3906C43.6797 69.8125 42.8125 70.0703 42.1094 70.1641C43.0938 71.4766 44.2891 73.0469 45.6953 74.875C47.1484 76.7031 48.6484 78.5781 50.1953 80.5C51.7422 82.4219 53.2656 84.25 54.7656 85.9844C56.3125 87.7188 57.6953 89.125 58.9141 90.2031C60.0859 91.1875 61.2578 92.0547 62.4297 92.8047C63.6484 93.5547 65.0781 93.9297 66.7188 93.9297C67.9844 93.9297 69.25 93.6719 70.5156 93.1562C71.7812 92.5938 73 91.8906 74.1719 91.0469C75.3438 90.2031 76.4453 89.2891 77.4766 88.3047C78.5078 87.3203 79.4219 86.4062 80.2188 85.5625L82.6797 87.7422ZM23.1953 99.8359L8.71094 105.18V26.3594L23.1953 21.2266V99.8359ZM114.953 104.617C111.484 104.617 108.227 104.008 105.18 102.789C102.18 101.523 99.5547 99.7891 97.3047 97.5859C95.1016 95.3828 93.3438 92.8047 92.0312 89.8516C90.7656 86.8516 90.1328 83.5938 90.1328 80.0781C90.1328 76.0938 90.7891 72.3672 92.1016 68.8984C93.4141 65.3828 95.2188 62.2188 97.5156 59.4062C99.8594 56.5938 102.602 54.1562 105.742 52.0938C108.93 50.0312 112.375 48.4141 116.078 47.2422L118.117 49.7031C116.008 51.25 114.039 53.0312 112.211 55.0469C110.383 57.0156 108.789 59.1719 107.43 61.5156C106.07 63.8125 104.992 66.25 104.195 68.8281C103.398 71.3594 103 73.9609 103 76.6328C103 78.8828 103.328 81.25 103.984 83.7344C104.641 86.2188 105.625 88.4922 106.938 90.5547C108.25 92.6172 109.891 94.3281 111.859 95.6875C113.875 97 116.195 97.6562 118.82 97.6562C121.164 97.6562 123.18 97.2344 124.867 96.3906C126.602 95.5469 128.031 94.3984 129.156 92.9453C130.281 91.4922 131.125 89.8047 131.688 87.8828C132.25 85.9141 132.531 83.8516 132.531 81.6953C132.531 79.1641 132.039 76.5859 131.055 73.9609C130.07 71.2891 128.711 68.8281 126.977 66.5781C125.289 64.3281 123.297 62.4531 121 60.9531C118.703 59.4531 116.242 58.5859 113.617 58.3516C115.258 56.4766 117.062 54.7422 119.031 53.1484C121 51.5547 122.992 50.0312 125.008 48.5781C127.727 49.4688 130.117 50.7812 132.18 52.5156C134.289 54.25 136.047 56.2422 137.453 58.4922C138.906 60.7422 140.008 63.2031 140.758 65.875C141.508 68.5 141.883 71.1719 141.883 73.8906C141.883 77.5938 141.227 81.2734 139.914 84.9297C138.648 88.5859 136.82 91.8906 134.43 94.8438C132.086 97.75 129.25 100.117 125.922 101.945C122.641 103.727 118.984 104.617 114.953 104.617ZM211.844 94.7734C211.281 95.9922 210.555 97.1406 209.664 98.2188C208.773 99.2969 207.766 100.258 206.641 101.102C205.562 101.945 204.391 102.602 203.125 103.07C201.859 103.586 200.547 103.844 199.188 103.844C195.484 103.844 192.789 102.836 191.102 100.82C189.461 98.7578 188.641 95.9688 188.641 92.4531V63.8359C188.641 63.5078 188.617 63.1328 188.57 62.7109C188.57 62.2422 188.5 61.8203 188.359 61.4453C188.219 61.0234 188.031 60.6719 187.797 60.3906C187.562 60.1094 187.234 59.9688 186.812 59.9688C185.5 59.9688 184.164 60.7656 182.805 62.3594C181.492 63.9531 180.203 66.0156 178.938 68.5469C177.719 71.0781 176.57 73.9141 175.492 77.0547C174.461 80.1953 173.547 83.3125 172.75 86.4062C171.953 89.4531 171.32 92.3125 170.852 94.9844C170.43 97.6562 170.219 99.7891 170.219 101.383L157.422 105.883V58.6328C157.422 57.6953 157.188 56.8516 156.719 56.1016C156.25 55.3047 155.523 54.9062 154.539 54.9062C153.367 54.9062 152.289 55.3516 151.305 56.2422C150.367 57.0859 149.617 57.9297 149.055 58.7734L147.156 56.6641C147.719 55.4922 148.422 54.3672 149.266 53.2891C150.156 52.1641 151.141 51.1797 152.219 50.3359C153.344 49.4922 154.539 48.8359 155.805 48.3672C157.117 47.8516 158.477 47.5938 159.883 47.5938C163.539 47.5938 166.164 48.625 167.758 50.6875C169.398 52.7031 170.219 55.4453 170.219 58.9141V81.8359C170.641 79.9141 171.203 77.7344 171.906 75.2969C172.656 72.8125 173.547 70.3047 174.578 67.7734C175.609 65.2422 176.758 62.7812 178.023 60.3906C179.336 57.9531 180.766 55.7969 182.312 53.9219C183.859 52 185.547 50.4766 187.375 49.3516C189.203 48.1797 191.172 47.5938 193.281 47.5938C195.484 47.5938 197.148 48.0859 198.273 49.0703C199.398 50.0078 200.195 51.2266 200.664 52.7266C201.18 54.1797 201.461 55.7969 201.508 57.5781C201.555 59.3594 201.578 61.0703 201.578 62.7109V92.8047C201.578 93.7422 201.812 94.6094 202.281 95.4062C202.75 96.1562 203.477 96.5312 204.461 96.5312C205.539 96.5312 206.547 96.1094 207.484 95.2656C208.469 94.375 209.242 93.5078 209.805 92.6641L211.844 94.7734ZM241.656 104.617C238.188 104.617 234.93 104.008 231.883 102.789C228.883 101.523 226.258 99.7891 224.008 97.5859C221.805 95.3828 220.047 92.8047 218.734 89.8516C217.469 86.8516 216.836 83.5938 216.836 80.0781C216.836 76.0938 217.492 72.3672 218.805 68.8984C220.117 65.3828 221.922 62.2188 224.219 59.4062C226.562 56.5938 229.305 54.1562 232.445 52.0938C235.633 50.0312 239.078 48.4141 242.781 47.2422L244.82 49.7031C242.711 51.25 240.742 53.0312 238.914 55.0469C237.086 57.0156 235.492 59.1719 234.133 61.5156C232.773 63.8125 231.695 66.25 230.898 68.8281C230.102 71.3594 229.703 73.9609 229.703 76.6328C229.703 78.8828 230.031 81.25 230.688 83.7344C231.344 86.2188 232.328 88.4922 233.641 90.5547C234.953 92.6172 236.594 94.3281 238.562 95.6875C240.578 97 242.898 97.6562 245.523 97.6562C247.867 97.6562 249.883 97.2344 251.57 96.3906C253.305 95.5469 254.734 94.3984 255.859 92.9453C256.984 91.4922 257.828 89.8047 258.391 87.8828C258.953 85.9141 259.234 83.8516 259.234 81.6953C259.234 79.1641 258.742 76.5859 257.758 73.9609C256.773 71.2891 255.414 68.8281 253.68 66.5781C251.992 64.3281 250 62.4531 247.703 60.9531C245.406 59.4531 242.945 58.5859 240.32 58.3516C241.961 56.4766 243.766 54.7422 245.734 53.1484C247.703 51.5547 249.695 50.0312 251.711 48.5781C254.43 49.4688 256.82 50.7812 258.883 52.5156C260.992 54.25 262.75 56.2422 264.156 58.4922C265.609 60.7422 266.711 63.2031 267.461 65.875C268.211 68.5 268.586 71.1719 268.586 73.8906C268.586 77.5938 267.93 81.2734 266.617 84.9297C265.352 88.5859 263.523 91.8906 261.133 94.8438C258.789 97.75 255.953 100.117 252.625 101.945C249.344 103.727 245.688 104.617 241.656 104.617ZM327.578 89.2891C325.938 91.3984 324.133 93.3672 322.164 95.1953C320.242 97.0234 318.133 98.6172 315.836 99.9766C313.586 101.336 311.195 102.414 308.664 103.211C306.133 104.008 303.508 104.406 300.789 104.406C297.32 104.406 294.133 103.797 291.227 102.578C288.32 101.312 285.812 99.6016 283.703 97.4453C281.594 95.2422 279.953 92.6641 278.781 89.7109C277.609 86.7109 277.023 83.5 277.023 80.0781C277.023 77.2656 277.422 74.5 278.219 71.7812C279.016 69.0625 280.141 66.5078 281.594 64.1172C283.047 61.7266 284.758 59.5234 286.727 57.5078C288.742 55.4453 290.945 53.6875 293.336 52.2344C295.727 50.7812 298.258 49.6562 300.93 48.8594C303.602 48.0156 306.344 47.5938 309.156 47.5938C311.125 47.5938 312.977 47.8281 314.711 48.2969C316.492 48.7656 318.062 49.5156 319.422 50.5469C320.781 51.5312 321.859 52.8203 322.656 54.4141C323.453 55.9609 323.852 57.8125 323.852 59.9688C323.852 61.75 323.312 63.625 322.234 65.5938C321.203 67.5625 319.82 69.5312 318.086 71.5C316.398 73.4688 314.477 75.4141 312.32 77.3359C310.164 79.2109 307.961 80.9688 305.711 82.6094C303.508 84.2031 301.375 85.6094 299.312 86.8281C297.25 88.0469 295.445 88.9844 293.898 89.6406C295.633 91.7969 297.648 93.5547 299.945 94.9141C302.242 96.2734 304.68 96.9531 307.258 96.9531C308.898 96.9531 310.562 96.6484 312.25 96.0391C313.938 95.3828 315.555 94.5625 317.102 93.5781C318.695 92.5938 320.195 91.5156 321.602 90.3438C323.055 89.1719 324.344 88.0703 325.469 87.0391L327.578 89.2891ZM310.633 62.5703C310.633 61.4922 310.445 60.4609 310.07 59.4766C309.742 58.4922 309.25 57.6484 308.594 56.9453C307.938 56.1953 307.141 55.6094 306.203 55.1875C305.312 54.7188 304.281 54.4844 303.109 54.4844C301 54.4844 299.055 55.2344 297.273 56.7344C295.492 58.1875 293.945 59.9922 292.633 62.1484C291.367 64.3047 290.359 66.6016 289.609 69.0391C288.906 71.4297 288.555 73.5391 288.555 75.3672C288.555 77.1484 288.836 78.9766 289.398 80.8516C289.961 82.7266 290.734 84.5312 291.719 86.2656C293.594 85.2344 295.633 83.8047 297.836 81.9766C300.039 80.1484 302.078 78.1562 303.953 76C305.875 73.7969 307.469 71.5234 308.734 69.1797C310 66.8359 310.633 64.6328 310.633 62.5703ZM361.961 94.7734C361.398 95.9922 360.672 97.1406 359.781 98.2188C358.938 99.2969 357.977 100.258 356.898 101.102C355.82 101.945 354.625 102.602 353.312 103.07C352.047 103.586 350.734 103.844 349.375 103.844C345.719 103.844 343.047 102.836 341.359 100.82C339.719 98.7578 338.898 95.9688 338.898 92.4531V6.67188L351.836 2.17188V92.8047C351.836 93.7422 352.047 94.6094 352.469 95.4062C352.891 96.1562 353.641 96.5312 354.719 96.5312C355.797 96.5312 356.805 96.1094 357.742 95.2656C358.727 94.375 359.5 93.5078 360.062 92.6641L361.961 94.7734Z" fill="black"/>
</svg>
